<?xml version="1.0" encoding="utf-8"?><svg version="1.1" id="Layer_1" xmlns="http://www.w3.org/2000/svg" xmlns:xlink="http://www.w3.org/1999/xlink" x="0px" y="0px" viewBox="0 0 90.81 122.88" style="enable-background:new 0 0 90.81 122.88" xml:space="preserve"><g><path d="M6.34,5.95c3.14-3.02,7.01-4.76,11.33-5.37c4.41-0.62,9.29-0.05,14.32,1.55c2.76,0.88,4.91,1.62,6.67,2.23 c3.33,1.15,5.12,1.78,6.74,1.78c1.95,0.01,4.3-0.84,9.39-2.66c1.58-0.57,3.31-1.19,3.48-1.25c4.4-1.55,8.68-2.32,12.62-2.23 c3.98,0.09,7.62,1.03,10.7,2.89c4.38,2.65,6.8,6.2,8.05,10.23c1.2,3.84,1.3,8.04,1.07,12.29c-0.33,6.13-1.39,12.13-3.19,17.99 c-1.72,5.61-4.11,11.09-7.16,16.45c1.55,9.74,1.98,18.5,1.71,26.24c-0.27,7.99-1.26,14.88-2.51,20.63 c-1.36,6.3-3.32,11.17-5.49,13.69c-1.24,1.44-2.63,2.26-4.13,2.36c-1.59,0.1-3.09-0.59-4.42-2.19c-1.86-2.24-3.55-6.67-4.81-13.78 c-0.35-1.97-0.55-4.14-0.64-5.08l-0.03-0.27l0,0l-0.06-0.56c-1.38-14-2.74-27.78-15.03-27.92c-5.86,1.34-8.95,4.1-10.67,8.18 c-1.88,4.47-2.33,10.72-2.85,18.36l0,0.03c-0.07,1.06-0.31,4.63-0.74,7.23c-1.19,7.21-2.9,11.7-4.8,13.95 c-1.33,1.56-2.82,2.25-4.41,2.16c-1.5-0.08-2.9-0.88-4.14-2.3c-2.19-2.5-4.14-7.35-5.39-13.73c-1.03-5.27-1.82-12.26-2.22-20.83 c-0.35-7.56-0.39-16.36-0.02-26.3c-2.11-4.83-3.99-9.69-5.52-14.6c-1.58-5.08-2.79-10.23-3.49-15.48 c-0.58-4.39-1.02-8.41-0.43-12.26C0.9,13.31,2.61,9.55,6.34,5.95L6.34,5.95z M18.29,5.06c-3.39,0.48-6.4,1.82-8.81,4.15 c-2.9,2.8-4.23,5.71-4.71,8.82c-0.51,3.32-0.11,6.98,0.43,11c0.66,4.94,1.81,9.84,3.33,14.72c1.52,4.89,3.42,9.74,5.55,14.6l0,0 c0.13,0.3,0.2,0.64,0.19,0.99c-0.39,10.02-0.35,18.88,0.01,26.47c0.38,8.29,1.15,15.05,2.15,20.16c1.1,5.61,2.67,9.71,4.34,11.62 c0.42,0.48,0.76,0.75,0.99,0.76c0.14,0.01,0.37-0.17,0.71-0.56c1.41-1.66,2.75-5.42,3.79-11.75c0.39-2.35,0.62-5.79,0.69-6.81 l0-0.03c0.54-8.05,1.02-14.63,3.2-19.82c2.33-5.52,6.41-9.22,14.09-10.91l0,0.01c0.15-0.03,0.31-0.05,0.47-0.05 c16.65-0.07,18.22,15.84,19.81,32l0.05,0.56l0,0l0,0.01l0.03,0.28c0.08,0.84,0.26,2.78,0.61,4.73c1.11,6.3,2.44,10.02,3.82,11.68 c0.32,0.39,0.54,0.57,0.66,0.56c0.22-0.01,0.55-0.29,0.97-0.78c1.68-1.96,3.29-6.12,4.49-11.71c1.2-5.56,2.16-12.18,2.42-19.82 c0.26-7.67-0.18-16.38-1.78-26.12c-0.1-0.51-0.02-1.06,0.27-1.55c3.08-5.29,5.46-10.69,7.16-16.21c1.69-5.51,2.69-11.14,2.99-16.89 c0.2-3.79,0.13-7.49-0.88-10.71c-0.94-3.03-2.76-5.7-6.07-7.69c-2.39-1.45-5.27-2.18-8.45-2.25c-3.39-0.07-7.13,0.61-11.03,1.98 c-2.39,0.85-2.96,1.05-3.46,1.23c-5.6,2.01-8.19,2.93-10.91,2.93c-2.39-0.01-4.43-0.72-8.22-2.03c-1.73-0.6-3.85-1.34-6.57-2.2 C26.23,5.04,22.03,4.54,18.29,5.06L18.29,5.06z"/></g></svg>